<svg width="36" height="36" viewBox="0 0 36 36" fill="none" xmlns="http://www.w3.org/2000/svg">
<path d="M34.1 14.252C36.832 10.804 36.608 5.764 33.42 2.576C30.236 -0.608 25.196 -0.832 21.744 1.9C21.508 0.808 20.54 0 19.408 0H16.592C15.4 0 14.38 0.888 14.216 2.068L13.98 3.756C12.856 4.072 11.78 4.516 10.768 5.084L9.408 4.056C8.46 3.34 7.108 3.436 6.268 4.276L4.276 6.268C3.432 7.108 3.34 8.46 4.056 9.412L5.084 10.768C4.516 11.78 4.072 12.856 3.756 13.98L2.068 14.216C0.888 14.38 0 15.4 0 16.592V19.408C0 20.596 0.888 21.62 2.068 21.784L3.756 22.02C4.072 23.14 4.516 24.216 5.084 25.228L4.056 26.588C3.34 27.54 3.432 28.888 4.276 29.732L6.268 31.724C7.108 32.564 8.46 32.66 9.408 31.94L10.768 30.916C11.78 31.484 12.856 31.928 13.98 32.244L14.216 33.932C14.38 35.112 15.4 36 16.592 36H19.408C20.596 36 21.62 35.108 21.784 33.932L22.02 32.244C23.14 31.928 24.216 31.484 25.228 30.916L26.588 31.94C27.536 32.66 28.888 32.564 29.732 31.724L31.724 29.732C32.564 28.888 32.656 27.54 31.94 26.588L30.916 25.228C31.48 24.216 31.928 23.14 32.244 22.02L33.932 21.784C35.112 21.62 36 20.596 36 19.408V16.592C36 15.46 35.192 14.488 34.1 14.252ZM22.108 3.708C23.512 2.304 25.356 1.604 27.2 1.604C29.044 1.604 30.888 2.304 32.292 3.708C35.096 6.516 35.096 11.084 32.292 13.892C29.484 16.696 24.916 16.696 22.108 13.892C19.3 11.084 19.3 6.516 22.108 3.708ZM25.6 18C25.6 22.188 22.188 25.6 18 25.6C13.808 25.6 10.4 22.188 10.4 18C10.4 13.808 13.808 10.4 18 10.4C18.188 10.4 18.372 10.416 18.556 10.428C18.872 12.112 19.676 13.72 20.976 15.02C22.276 16.324 23.888 17.128 25.572 17.444C25.584 17.628 25.6 17.812 25.6 18ZM34.4 19.408C34.4 19.804 34.104 20.144 33.708 20.2L31.492 20.508C31.168 20.556 30.904 20.792 30.828 21.112C30.504 22.444 29.98 23.708 29.272 24.868C29.1 25.148 29.12 25.504 29.316 25.768L30.664 27.552C30.904 27.868 30.872 28.32 30.592 28.6L28.6 30.592C28.32 30.872 27.868 30.904 27.552 30.664L25.768 29.316C25.504 29.12 25.148 29.1 24.868 29.272C23.708 29.98 22.444 30.504 21.112 30.828C20.792 30.904 20.552 31.168 20.508 31.492L20.2 33.708C20.144 34.104 19.804 34.4 19.408 34.4H16.592C16.196 34.4 15.852 34.104 15.8 33.708L15.488 31.492C15.444 31.168 15.204 30.904 14.884 30.828C13.556 30.504 12.292 29.98 11.128 29.272C11 29.192 10.856 29.156 10.712 29.156C10.54 29.156 10.372 29.208 10.232 29.316L8.444 30.664C8.128 30.904 7.68 30.872 7.396 30.592L5.408 28.6C5.128 28.32 5.096 27.868 5.336 27.552L6.68 25.768C6.88 25.504 6.896 25.148 6.724 24.868C6.016 23.708 5.492 22.444 5.172 21.112C5.096 20.792 4.832 20.556 4.504 20.508L2.288 20.2C1.896 20.144 1.6 19.804 1.6 19.408V16.592C1.6 16.196 1.896 15.856 2.288 15.8L4.504 15.488C4.832 15.444 5.096 15.204 5.172 14.884C5.492 13.556 6.016 12.292 6.724 11.128C6.896 10.848 6.88 10.492 6.68 10.232L5.336 8.448C5.096 8.128 5.128 7.68 5.408 7.4L7.396 5.408C7.68 5.128 8.128 5.096 8.444 5.336L10.232 6.684C10.492 6.88 10.848 6.896 11.128 6.728C12.292 6.016 13.556 5.496 14.884 5.172C15.204 5.096 15.444 4.832 15.488 4.504L15.8 2.288C15.852 1.896 16.196 1.6 16.592 1.6H19.408C19.804 1.6 20.144 1.896 20.2 2.288L20.34 3.292C19.048 4.896 18.4 6.852 18.404 8.808C18.268 8.804 18.136 8.8 18 8.8C12.928 8.8 8.8 12.928 8.8 18C8.8 23.072 12.928 27.2 18 27.2C23.072 27.2 27.2 23.072 27.2 18C27.2 17.864 27.196 17.728 27.188 17.596H27.2C29.152 17.596 31.104 16.948 32.708 15.66L33.708 15.8C34.104 15.856 34.4 16.196 34.4 16.592V19.408Z" fill="url(#paint0_linear_63_112)"/>
<path d="M18 15.2C16.456 15.2 15.2 16.456 15.2 18C15.2 19.544 16.456 20.8 18 20.8C19.544 20.8 20.8 19.544 20.8 18C20.8 16.456 19.544 15.2 18 15.2ZM18 19.2C17.336 19.2 16.8 18.66 16.8 18C16.8 17.336 17.336 16.8 18 16.8C18.66 16.8 19.2 17.336 19.2 18C19.2 18.66 18.66 19.2 18 19.2Z" fill="url(#paint1_linear_63_112)"/>
<path d="M25.36 11.768C25.512 11.92 25.712 12.004 25.928 12.004C26.14 12.004 26.34 11.92 26.492 11.768L31.3 6.95999C31.612 6.64799 31.612 6.13999 31.3 5.82799C30.988 5.51599 30.48 5.51599 30.168 5.82799L25.928 10.072L24.228 8.37599C23.916 8.06399 23.412 8.06399 23.096 8.37599C22.784 8.68799 22.784 9.19599 23.096 9.50799L25.36 11.768Z" fill="url(#paint2_linear_63_112)"/>
<defs>
<linearGradient id="paint0_linear_63_112" x1="0" y1="18" x2="36" y2="18" gradientUnits="userSpaceOnUse">
<stop stop-color="#75DA5B"/>
<stop offset="1" stop-color="#4DCE94"/>
</linearGradient>
<linearGradient id="paint1_linear_63_112" x1="15.2" y1="18" x2="20.8" y2="18" gradientUnits="userSpaceOnUse">
<stop stop-color="#75DA5B"/>
<stop offset="1" stop-color="#4DCE94"/>
</linearGradient>
<linearGradient id="paint2_linear_63_112" x1="22.862" y1="8.79899" x2="31.534" y2="8.79899" gradientUnits="userSpaceOnUse">
<stop stop-color="#75DA5B"/>
<stop offset="1" stop-color="#4DCE94"/>
</linearGradient>
</defs>
</svg>
