<svg width="44" height="33" viewBox="0 0 44 33" fill="none" xmlns="http://www.w3.org/2000/svg">
<path d="M41.4774 3.47096C39.5655 2.95471 37.5985 4.42886 37.1588 6.33297C36.9076 7.28304 37.0116 8.29396 37.4513 9.17337C37.202 10.3531 36.7231 11.474 36.0419 12.4692C31.9334 17.4493 26.7749 11.3699 24.3563 6.80579C25.6204 5.7811 26.0994 4.06941 25.5497 2.53631C25.0001 1.00518 23.5416 -0.013582 21.9143 0.000136867C20.285 0.0138778 18.8442 1.05428 18.3182 2.59521C17.794 4.13614 18.3005 5.84196 19.5823 6.84504C17.4505 10.8613 15.1342 12.8024 13.5324 13.7251C11.6166 14.8577 9.14909 14.3081 7.89464 12.4688C7.2881 11.5069 6.80909 10.4724 6.46954 9.38886C6.51469 9.31426 6.56769 9.25145 6.60891 9.17293C8.09682 6.49348 5.55477 2.65019 2.58285 3.47031H2.58089C0.653264 4.07293 -0.428364 6.11835 0.160542 8.04994C0.415727 9.08639 1.07136 9.97953 1.98414 10.5311L4.65183 18.6619H4.65379C5.60974 21.6143 6.17508 24.6786 6.33609 27.7782C6.82094 33.8477 36.8527 33.9321 37.6025 27.7743C37.7615 24.6767 38.3249 21.6123 39.2769 18.662L41.9249 10.6061C44.8242 9.19081 44.6947 4.25589 41.4774 3.47096ZM21.9459 1.57082C23.1885 1.58456 24.1896 2.59747 24.1896 3.84001C24.1896 5.08455 23.1884 6.09548 21.9459 6.1092C20.7013 6.09546 19.7022 5.0845 19.7022 3.84001C19.7022 2.59742 20.7014 1.58454 21.9459 1.57082ZM2.96966 4.99425C5.35076 4.42303 6.55601 8.65321 4.09053 9.39132C1.64466 9.94882 0.553231 5.67934 2.96966 4.99425ZM36.2145 25.676C30.8435 22.2153 13.1317 22.2192 7.72 25.6446C7.64737 24.9203 7.55118 24.1979 7.43144 23.4775C10.1717 21.8836 15.7622 20.8668 21.9418 20.8668C28.076 20.8668 33.8023 21.9169 36.4993 23.505C36.3835 24.2254 36.2871 24.9498 36.2145 25.676ZM21.9454 30.754C12.8588 30.754 7.90241 28.742 7.90241 27.7095C7.90241 26.675 12.8589 24.6649 21.9454 24.6649C31.0318 24.6649 35.9884 26.6769 35.9884 27.7095C35.9884 28.742 31.0299 30.754 21.9454 30.754ZM37.7829 18.1714C37.3864 19.3884 37.0566 20.6271 36.7955 21.8794C33.6862 20.2914 28.0702 19.2962 21.9415 19.2962C15.8544 19.2962 10.2518 20.2855 7.13064 21.8598C6.61043 19.3453 4.62195 13.519 3.79359 11.0064C4.30003 10.9946 4.79472 10.8572 5.23246 10.604C5.57991 11.5619 6.03338 12.4767 6.58299 13.3345C11.5081 19.5632 18.1174 13.2579 20.9813 7.54391C21.6291 7.72646 22.3141 7.72057 22.9599 7.5282C24.8346 11.0792 27.0724 13.6293 29.6244 15.0876H29.6224C32.2587 16.6286 35.6371 15.863 37.3527 13.3367C37.9161 12.4612 38.3794 11.5248 38.7346 10.5433C39.1567 10.8123 39.6415 10.9693 40.1421 10.9987L37.7829 18.1714ZM42.3762 7.66365C41.5282 10.6199 37.989 9.54027 38.6819 6.72142C39.422 3.91438 43.0456 4.66223 42.3762 7.66365Z" fill="url(#paint0_linear_63_117)"/>
<defs>
<linearGradient id="paint0_linear_63_117" x1="0" y1="16.1808" x2="44" y2="16.1808" gradientUnits="userSpaceOnUse">
<stop stop-color="#75DA5B"/>
<stop offset="1" stop-color="#4DCE94"/>
</linearGradient>
</defs>
</svg>
