<svg width="37" height="37" viewBox="0 0 37 37" fill="none" xmlns="http://www.w3.org/2000/svg">
<path d="M18.6995 7.30752C18.6669 6.30126 19.3264 5.38172 20.4645 4.84701C20.8619 4.66094 21.3244 4.51822 21.8194 4.44054V3.6023C21.8194 3.19403 22.15 2.8616 22.5601 2.8616C22.9683 2.8616 23.3008 3.1922 23.3008 3.6023V4.40622C24.2365 4.51281 25.185 4.8705 25.9781 5.58049C26.2816 5.85328 26.3087 6.32119 26.0359 6.62467C25.7631 6.92997 25.2952 6.95526 24.9917 6.68248C23.8734 5.68163 22.1844 5.67442 21.095 6.18569C20.5097 6.46028 20.1664 6.86132 20.1809 7.25696C20.1935 7.6526 20.5566 8.02657 21.1528 8.25961C21.6261 8.44387 22.15 8.54865 22.7046 8.65885C23.2972 8.77628 23.9114 8.89912 24.5075 9.13215C25.6728 9.5874 26.3863 10.4582 26.4207 11.4644C26.4532 12.4707 25.7938 13.3902 24.6557 13.9249C24.2582 14.111 23.7958 14.2537 23.3008 14.3314V15.1696C23.3008 15.5779 22.9702 15.9103 22.5601 15.9103C22.1518 15.9103 21.8194 15.5797 21.8194 15.1696V14.3657C20.8836 14.2591 19.9352 13.9014 19.1421 13.1914C18.8386 12.9186 18.8115 12.4507 19.0842 12.1473C19.357 11.8438 19.8249 11.8167 20.1284 12.0894C21.2467 13.0903 22.9358 13.0975 24.0251 12.5862C24.6104 12.3116 24.9537 11.9106 24.9393 11.515C24.9266 11.1193 24.5635 10.7454 23.9673 10.5123C23.4922 10.3262 22.9683 10.2233 22.4137 10.1131C21.8212 9.99564 21.2069 9.8728 20.6108 9.64158C19.4456 9.18633 18.732 8.31557 18.6977 7.30932L18.6995 7.30752ZM13.1734 9.38685C13.1734 4.21129 17.3844 0 22.5602 0C27.736 0 31.9471 4.21106 31.9471 9.38685C31.9471 14.5626 27.736 18.7737 22.5602 18.7737C17.3844 18.7737 13.1734 14.5626 13.1734 9.38685ZM14.6529 9.38685C14.6529 13.746 18.1992 17.2942 22.5603 17.2942C26.9195 17.2942 30.4677 13.748 30.4677 9.38685C30.4677 5.02765 26.9214 1.47946 22.5603 1.47946C18.2011 1.47946 14.6529 5.02571 14.6529 9.38685ZM36.6329 20.8636C36.6293 20.869 36.6275 20.8745 36.6239 20.8781C36.3656 21.3297 36.0241 21.8717 35.6375 22.4443C34.2573 24.4912 31.3362 28.2886 29.1555 29.5331C26.6191 30.9802 23.5337 30.9477 20.5493 30.9152C19.926 30.9079 19.3371 30.9025 18.7554 30.9097C15.6879 30.9477 14.2499 31.0814 13.0106 31.748L13.1641 31.9015C13.4821 32.2195 13.6573 32.6422 13.6573 33.0938C13.6573 33.5437 13.4821 33.9682 13.1641 34.2861L10.9457 36.5046C10.6277 36.8225 10.205 36.9978 9.75336 36.9978C9.30353 36.9978 8.879 36.8225 8.56105 36.5046L0.493183 28.4367C0.175231 28.1188 0 27.696 0 27.2444C0 26.7946 0.175236 26.3701 0.493183 26.0521L2.71163 23.8337C3.36922 23.1761 4.43869 23.1761 5.09624 23.8337L5.34193 24.0793C5.71769 23.6873 6.14044 23.2501 6.32649 23.0677C8.40402 21.0227 10.9637 18.9722 14.1941 19.2704C15.2221 19.3661 15.9483 19.5504 16.6492 19.7292C17.5832 19.9659 18.4666 20.1899 20.0726 20.1899H25.281C26.4317 20.1899 27.4759 21.0317 27.9023 22.1626C28.3087 21.729 28.7242 21.2575 29.1307 20.7969C30.2977 19.4745 31.4015 18.2244 32.4511 17.5523C33.6922 16.7556 35.2459 16.8387 36.2304 17.7511C37.0867 18.546 37.2403 19.7383 36.6315 20.8619L36.6329 20.8636ZM12.1777 33.0956C12.1777 33.0631 12.1705 33.0017 12.1181 32.9493L4.05026 24.8814C3.97077 24.8019 3.83708 24.8019 3.7594 24.8814L1.54096 27.0999C1.46147 27.1793 1.46147 27.313 1.54096 27.3907L9.60883 35.4586C9.66121 35.511 9.72264 35.5182 9.75516 35.5182C9.78767 35.5182 9.8491 35.511 9.90149 35.4586L12.1199 33.2401C12.1723 33.1877 12.1796 33.1263 12.1796 33.0938L12.1777 33.0956ZM35.2238 18.8366C34.8101 18.4536 34.0008 18.3181 33.251 18.7987C32.3749 19.3605 31.2909 20.5889 30.2414 21.7776C29.4826 22.6358 28.7022 23.5227 27.9579 24.2038C27.5731 25.4015 26.4892 26.3193 25.286 26.3265L17.4762 26.3753H17.4708C17.0643 26.3753 16.7337 26.0465 16.7301 25.64C16.7283 25.2318 17.0571 24.8975 17.4653 24.8957L25.2752 24.8469C25.8514 24.8433 26.4024 24.3122 26.5723 23.6691C26.5777 23.642 26.5831 23.6167 26.5903 23.5896C26.612 23.4848 26.6246 23.3764 26.6246 23.2698C26.6246 22.4641 25.9598 21.6747 25.2806 21.6747H20.0722C18.2819 21.6747 17.2667 21.4163 16.2857 21.167C15.6083 20.9954 14.9687 20.8328 14.0564 20.7479C11.9681 20.5528 9.9664 21.5644 7.36304 24.1261C7.21852 24.2688 6.87166 24.6265 6.3875 25.1306L11.9266 30.6696C13.6283 29.6128 15.3987 29.4755 18.7356 29.4339C19.3354 29.4267 19.9604 29.4321 20.5638 29.4394C23.3512 29.4683 26.2328 29.5008 28.4203 28.2507C30.113 27.2842 32.7108 24.1354 34.4089 21.6188C34.772 21.0804 35.0918 20.5728 35.332 20.1537C35.612 19.6316 35.5723 19.1637 35.2218 18.8385L35.2238 18.8366Z" fill="url(#paint0_linear_63_122)"/>
<defs>
<linearGradient id="paint0_linear_63_122" x1="0" y1="18.4989" x2="37" y2="18.4989" gradientUnits="userSpaceOnUse">
<stop stop-color="#75DA5B"/>
<stop offset="1" stop-color="#4DCE94"/>
</linearGradient>
</defs>
</svg>
